# xmcd
#
# Track frame offsets: 
#        150
#        24150
#        43622
#        67300
#        91427
#        112285
#        136797
#        160527
#        184572
#        208957
#        228542
#
# Disc length: 3237 seconds
#
# Revision: 1
# Processed by: cddbd v1.5.2PL0 Copyright (c) Steve Scherf et al.
# Submitted via: ExactAudioCopyFreeDBPlugin 1.0
#
DISCID=970ca30b
DTITLE=杨小琳 - 绿蓑衣
DYEAR=1998
DGENRE=New Age
TTITLE0=相思意
TTITLE1=人约黄昏
TTITLE2=隔三秋
TTITLE3=留人醉
TTITLE4=绿蓑衣
TTITLE5=江南
TTITLE6=独徘徊
TTITLE7=吹裙带
TTITLE8=心悠然
TTITLE9=却上心头（慢板）
TTITLE10=却上心头
EXTD=YEAR: 1998
EXTT0=
EXTT1=
EXTT2=
EXTT3=
EXTT4=
EXTT5=
EXTT6=
EXTT7=
EXTT8=
EXTT9=
EXTT10=
PLAYORDER=
